<svg xmlns="http://www.w3.org/2000/svg" version="1.1" xmlns:xlink="http://www.w3.org/1999/xlink" xmlns:svgjs="http://svgjs.com/svgjs" width="1440" height="560" preserveAspectRatio="none" viewBox="0 0 1440 560">
    <g mask="url(&quot;#SvgjsMask1004&quot;)" fill="none">
        <rect width="1440" height="560" x="0" y="0" fill="rgba(0, 0, 0, 1)"></rect>
        <path d="M1229.023,374.449C1271.652,373.341,1315.346,362.628,1338.456,326.79C1363.432,288.058,1365.187,238.202,1342.891,197.867C1319.875,156.229,1276.59,127.898,1229.023,128.818C1182.844,129.711,1145.925,162.3,1122.537,202.129C1098.786,242.576,1084.617,292.845,1109.274,332.746C1133.088,371.284,1183.736,375.626,1229.023,374.449" fill="rgba(137, 49, 239, 1)" class="triangle-float2"></path>
        <path d="M281.74,33.379C300.607,33.397,315.943,20.281,325.717,4.143C335.931,-12.723,342.513,-33.566,332.609,-50.616C322.737,-67.611,301.394,-71.496,281.74,-71.56C261.94,-71.625,240.224,-68.079,230.294,-50.949C220.344,-33.783,227.573,-12.877,237.906,4.061C247.718,20.145,262.899,33.361,281.74,33.379" fill="rgba(137, 49, 239, 1)" class="triangle-float1"></path>
        <path d="M665.236,413.89C695.286,413.707,728.142,411.722,744.847,386.742C763.108,359.436,761.224,323.291,744.879,294.797C728.454,266.165,698.213,246.508,665.236,247.962C634.289,249.326,612.469,274.545,596.891,301.32C581.194,328.301,567.723,361.043,583.923,387.725C599.76,413.811,634.72,414.076,665.236,413.89" fill="rgba(137, 49, 239, 1)" class="triangle-float3"></path>
        <path d="M988.242,128.758C1026.886,129.462,1071.243,132.064,1092.466,99.762C1115.044,65.397,1104.656,19.814,1082.631,-14.907C1062.222,-47.08,1026.303,-66.253,988.242,-64.54C952.863,-62.948,925.931,-37.269,907.506,-7.024C888.08,24.865,871.309,63.986,890.393,96.081C909.229,127.76,951.392,128.087,988.242,128.758" fill="rgba(137, 49, 239, 1)" class="triangle-float2"></path>
        <path d="M1124.5875463970629 509.6806104008116L1137.2017255570634 389.6647125817064 1017.1858277379582 377.05053342170584 1004.5716485779576 497.066431240811z" fill="rgba(137, 49, 239, 1)" class="triangle-float3"></path>
        <path d="M1241.4904589460757 318.41247127090236L1160.8498201205305 211.39872910530065 1053.8360779549287 292.03936793084597 1134.476716780474 399.05311009644765z" fill="rgba(137, 49, 239, 1)" class="triangle-float1"></path>
        <path d="M966.5104243727814 302.2068739437353L971.0143961743715 173.22999665428745 842.0375188849238 168.7260248526972 837.5335470833336 297.70290214214504z" fill="rgba(137, 49, 239, 1)" class="triangle-float3"></path>
        <path d="M1124.822,358.978C1168.127,358.745,1190.695,312.097,1211.235,273.972C1230.285,238.612,1249.839,198.276,1230.31,163.178C1210.422,127.433,1165.727,118.525,1124.822,118.666C1084.227,118.806,1040.515,128.535,1020.587,163.902C1000.912,198.82,1017.894,239.561,1036.783,274.911C1057.279,313.269,1081.333,359.212,1124.822,358.978" fill="rgba(137, 49, 239, 1)" class="triangle-float3"></path>
        <path d="M128.7022920636505 189.8757277429113L223.43022502079168 325.16123637845294 358.7157336563333 230.4333034213118 263.9878006991922 95.14779478577013z" fill="rgba(137, 49, 239, 1)" class="triangle-float3"></path>
        <path d="M399.555,332.92C417.959,331.776,433.254,319.501,441.682,303.101C449.395,288.093,447.043,270.834,439.116,255.938C430.576,239.89,417.71,224.87,399.555,223.935C380.025,222.929,362.487,234.805,352.243,251.463C341.441,269.029,336.91,291.137,347.267,308.968C357.587,326.736,379.047,334.194,399.555,332.92" fill="rgba(137, 49, 239, 1)" class="triangle-float2"></path>
        <path d="M909.9640713392758 435.8713171540219L753.0048960777402 449.6034656257849 766.7370445495033 606.5626408873205 923.6962198110389 592.8304924155575z" fill="rgba(137, 49, 239, 1)" class="triangle-float1"></path>
    </g>
    <defs>
        <mask id="SvgjsMask1004">
            <rect width="1440" height="560" fill="#ffffff"></rect>
        </mask>
        <style>
            @keyframes float1 {
                0%{transform: translate(0, 0)}
                50%{transform: translate(-10px, 0)}
                100%{transform: translate(0, 0)}
            }

            .triangle-float1 {
                animation: float1 3s infinite;
            }

            @keyframes float2 {
                0%{transform: translate(0, 0)}
                50%{transform: translate(-5px, -5px)}
                100%{transform: translate(0, 0)}
            }

            .triangle-float2 {
                animation: float2 2s infinite;
            }

            @keyframes float3 {
                0%{transform: translate(0, 0)}
                50%{transform: translate(0, -10px)}
                100%{transform: translate(0, 0)}
            }

            .triangle-float3 {
                animation: float3 4s infinite;
            }
        </style>
    </defs>
</svg>