<svg xmlns="http://www.w3.org/2000/svg" version="1.1" xmlns:xlink="http://www.w3.org/1999/xlink" xmlns:svgjs="http://svgjs.com/svgjs" width="1440" height="560" preserveAspectRatio="none" viewBox="0 0 1440 560">
    <g mask="url(&quot;#SvgjsMask1002&quot;)" fill="none">
        <rect width="1440" height="560" x="0" y="0" fill="rgba(255, 253, 253, 1)"></rect>
        <path d="M73.54730612984002 242.05974397164988L162.81895854236964 269.35282709867323 190.11204166939297 180.08117468614358 100.84038925686336 152.78809155912026z" fill="rgba(137, 49, 239, 1)" class="triangle-float2"></path>
        <path d="M86.59290443724154 610.2379625773574L180.02046290115806 583.448041285118 153.23054160891877 490.0204828212016 59.80298314500226 516.8104041134409z" fill="rgba(137, 49, 239, 1)" class="triangle-float3"></path>
        <path d="M497.08,341.695C544.563,343.005,587.488,315.425,611.914,274.685C637.097,232.683,644.809,179.626,619.324,137.807C594.658,97.332,544.478,85.981,497.08,86.251C450.271,86.518,400.475,98.559,377.227,139.188C354.095,179.616,368.997,228.553,392.72,268.637C415.9,307.803,451.585,340.44,497.08,341.695" fill="rgba(137, 49, 239, 1)" class="triangle-float1"></path>
        <path d="M416.6698620871869 136.2854246946805L332.33183037232703 1.3163604300310396 197.3627661076776 85.6543921448909 281.7007978225374 220.62345640954038z" fill="rgba(137, 49, 239, 1)" class="triangle-float1"></path>
        <path d="M927.1414240073539 162.1974562430803L781.8413422727996 239.45488012252656 859.0987661522458 384.75496185708084 1004.3988478868001 307.4975379776346z" fill="rgba(137, 49, 239, 1)" class="triangle-float3"></path>
        <path d="M341.85317856671037 343.3347776536886L360.94421969168394 433.15106455153034 450.7605065895257 414.06002342655677 431.6694654645521 324.24373652871503z" fill="rgba(137, 49, 239, 1)" class="triangle-float3"></path>
        <path d="M326.29864483688476 124.7123518084781L402.8123476041117 6.891581665502443 284.99157746113605-69.6221211017245 208.4778746939091 48.19864904125116z" fill="rgba(137, 49, 239, 1)" class="triangle-float1"></path>
        <path d="M1195.902,119.658C1229.234,120.998,1261.333,105.377,1279.001,77.081C1297.765,47.03,1303.357,7.934,1284.316,-21.942C1266.303,-50.205,1229.393,-54.585,1195.902,-53.304C1165.156,-52.128,1133.954,-42.19,1118.473,-15.601C1102.907,11.133,1108.255,43.986,1123.624,70.833C1139.106,97.877,1164.765,118.406,1195.902,119.658" fill="rgba(137, 49, 239, 1)" class="triangle-float1"></path>
        <path d="M291.798,385.284C307.822,385.054,319.95,372.928,328.347,359.278C337.294,344.735,344.157,327.608,336.743,312.227C328.464,295.052,310.864,283.405,291.798,283.454C272.807,283.503,255.739,295.468,247.252,312.457C239.542,327.89,244.38,345.638,253.382,360.355C261.919,374.312,275.439,385.519,291.798,385.284" fill="rgba(137, 49, 239, 1)" class="triangle-float2"></path>
        <path d="M810.1651122461298 336.2870897614381L830.2224366183574 172.93329165575867 666.868638512678 152.87596728353105 646.8113141404503 316.22976538921046z" fill="rgba(137, 49, 239, 1)" class="triangle-float1"></path>
        <path d="M638.4984346566324 134.53771207752902L691.8276728541126 68.68158746728027 625.9715482438638 15.352349269800044 572.6423100463836 81.20847388004881z" fill="rgba(137, 49, 239, 1)" class="triangle-float3"></path>
    </g>
    <defs>
        <mask id="SvgjsMask1002">
            <rect width="1440" height="560" fill="#ffffff"></rect>
        </mask>
        <style>
            @keyframes float1 {
                0%{transform: translate(0, 0)}
                50%{transform: translate(-10px, 0)}
                100%{transform: translate(0, 0)}
            }

            .triangle-float1 {
                animation: float1 3s infinite;
            }

            @keyframes float2 {
                0%{transform: translate(0, 0)}
                50%{transform: translate(-5px, -5px)}
                100%{transform: translate(0, 0)}
            }

            .triangle-float2 {
                animation: float2 2s infinite;
            }

            @keyframes float3 {
                0%{transform: translate(0, 0)}
                50%{transform: translate(0, -10px)}
                100%{transform: translate(0, 0)}
            }

            .triangle-float3 {
                animation: float3 4s infinite;
            }
        </style>
    </defs>
</svg>